<svg width="60" height="55" viewBox="0 0 60 55" fill="none" xmlns="http://www.w3.org/2000/svg">
<path d="M59.5 27.5C59.5 42.3716 46.3342 54.5 30 54.5C13.6658 54.5 0.5 42.3716 0.5 27.5C0.5 12.6284 13.6658 0.5 30 0.5C46.3342 0.5 59.5 12.6284 59.5 27.5Z" fill="#0F0F44" stroke="white"/>
<path d="M41 26C41 26.2652 40.8946 26.5196 40.7071 26.7071C40.5196 26.8946 40.2652 27 40 27H30V37C30 37.2652 29.8946 37.5196 29.7071 37.7071C29.5196 37.8946 29.2652 38 29 38C28.7348 38 28.4804 37.8946 28.2929 37.7071C28.1054 37.5196 28 37.2652 28 37V27H18C17.7348 27 17.4804 26.8946 17.2929 26.7071C17.1054 26.5196 17 26.2652 17 26C17 25.7348 17.1054 25.4804 17.2929 25.2929C17.4804 25.1054 17.7348 25 18 25H28V15C28 14.7348 28.1054 14.4804 28.2929 14.2929C28.4804 14.1054 28.7348 14 29 14C29.2652 14 29.5196 14.1054 29.7071 14.2929C29.8946 14.4804 30 14.7348 30 15V25H40C40.2652 25 40.5196 25.1054 40.7071 25.2929C40.8946 25.4804 41 25.7348 41 26Z" fill="white"/>
</svg>
