<svg width="56" height="54" viewBox="0 0 56 54" fill="none" xmlns="http://www.w3.org/2000/svg">
<rect width="56" height="54" rx="10" fill="#00002D"/>
<path d="M28 32C30.7614 32 33 29.7614 33 27C33 24.2386 30.7614 22 28 22C25.2386 22 23 24.2386 23 27C23 29.7614 25.2386 32 28 32Z" stroke="white" stroke-width="1.5" stroke-miterlimit="10" stroke-linecap="round" stroke-linejoin="round"/>
<path d="M11.3335 28.4667V25.5334C11.3335 23.8001 12.7502 22.3667 14.5002 22.3667C17.5168 22.3667 18.7502 20.2334 17.2335 17.6167C16.3668 16.1167 16.8835 14.1667 18.4002 13.3001L21.2835 11.6501C22.6002 10.8667 24.3002 11.3334 25.0835 12.6501L25.2668 12.9667C26.7668 15.5834 29.2335 15.5834 30.7502 12.9667L30.9335 12.6501C31.7168 11.3334 33.4168 10.8667 34.7335 11.6501L37.6168 13.3001C39.1335 14.1667 39.6502 16.1167 38.7835 17.6167C37.2668 20.2334 38.5002 22.3667 41.5168 22.3667C43.2502 22.3667 44.6835 23.7834 44.6835 25.5334V28.4667C44.6835 30.2001 43.2668 31.6334 41.5168 31.6334C38.5002 31.6334 37.2668 33.7667 38.7835 36.3834C39.6502 37.9001 39.1335 39.8334 37.6168 40.7001L34.7335 42.3501C33.4168 43.1334 31.7168 42.6667 30.9335 41.3501L30.7502 41.0334C29.2502 38.4167 26.7835 38.4167 25.2668 41.0334L25.0835 41.3501C24.3002 42.6667 22.6002 43.1334 21.2835 42.3501L18.4002 40.7001C16.8835 39.8334 16.3668 37.8834 17.2335 36.3834C18.7502 33.7667 17.5168 31.6334 14.5002 31.6334C12.7502 31.6334 11.3335 30.2001 11.3335 28.4667Z" stroke="white" stroke-width="1.5" stroke-miterlimit="10" stroke-linecap="round" stroke-linejoin="round"/>
</svg>
