<svg width="68" height="65" viewBox="0 0 68 65" fill="none" xmlns="http://www.w3.org/2000/svg">
<path d="M34.3412 6.65778C28.9353 6.65778 23.6507 8.19165 19.1559 11.0654C14.661 13.9392 11.1577 18.0238 9.0889 22.8027C7.02014 27.5816 6.47886 32.8402 7.53351 37.9135C8.58815 42.9868 11.1914 47.6469 15.0139 51.3045C18.8365 54.9621 23.7067 57.453 29.0088 58.4621C34.3109 59.4712 39.8066 58.9533 44.801 56.9738C49.7954 54.9943 54.0643 51.6422 57.0676 47.3413C60.071 43.0404 61.6741 37.9839 61.6741 32.8112C61.6664 25.8771 58.7842 19.2292 53.66 14.326C48.5357 9.42289 41.588 6.6651 34.3412 6.65778ZM36.4437 54.848V38.8466H42.7513C43.3089 38.8466 43.8437 38.6347 44.238 38.2574C44.6323 37.8801 44.8538 37.3684 44.8538 36.8348C44.8538 36.3012 44.6323 35.7895 44.238 35.4123C43.8437 35.035 43.3089 34.823 42.7513 34.823H36.4437V28.7876C36.4437 27.7205 36.8867 26.6971 37.6753 25.9425C38.4639 25.1879 39.5335 24.764 40.6488 24.764H44.8538C45.4115 24.764 45.9462 24.552 46.3405 24.1748C46.7348 23.7975 46.9564 23.2858 46.9564 22.7522C46.9564 22.2186 46.7348 21.7069 46.3405 21.3296C45.9462 20.9524 45.4115 20.7404 44.8538 20.7404H40.6488C38.4183 20.7404 36.2791 21.5882 34.7019 23.0974C33.1247 24.6065 32.2387 26.6533 32.2387 28.7876V34.823H25.9311C25.3734 34.823 24.8387 35.035 24.4444 35.4123C24.0501 35.7895 23.8285 36.3012 23.8285 36.8348C23.8285 37.3684 24.0501 37.8801 24.4444 38.2574C24.8387 38.6347 25.3734 38.8466 25.9311 38.8466H32.2387V54.848C26.3116 54.3303 20.8213 51.6461 16.9097 47.3539C12.9982 43.0617 10.9665 37.4918 11.2373 31.8029C11.5081 26.1139 14.0606 20.7438 18.3637 16.8096C22.6669 12.8754 28.3895 10.68 34.3412 10.68C40.2929 10.68 46.0155 12.8754 50.3186 16.8096C54.6218 20.7438 57.1742 26.1139 57.445 31.8029C57.7159 37.4918 55.6842 43.0617 51.7726 47.3539C47.8611 51.6461 42.3708 54.3303 36.4437 54.848Z" fill="#343330"/>
</svg>
