<svg width="68" height="65" viewBox="0 0 68 65" fill="none" xmlns="http://www.w3.org/2000/svg">
<path d="M54.7472 19.6541C55.3899 17.6704 55.596 15.5809 55.3527 13.5172C55.1093 11.4535 54.4217 9.46046 53.3333 7.66371C53.1487 7.35781 52.8832 7.1038 52.5635 6.92723C52.2438 6.75065 51.8811 6.65773 51.512 6.65781C49.063 6.6529 46.6468 7.19613 44.4564 8.24408C42.266 9.29202 40.362 10.8156 38.8968 12.6932H32.5892C31.1239 10.8156 29.22 9.29202 27.0296 8.24408C24.8392 7.19613 22.423 6.6529 19.974 6.65781C19.6049 6.65773 19.2422 6.75065 18.9225 6.92723C18.6028 7.1038 18.3373 7.35781 18.1527 7.66371C17.0642 9.46046 16.3767 11.4535 16.1333 13.5172C15.8899 15.5809 16.0961 17.6704 16.7388 19.6541C15.4397 21.8236 14.7439 24.2756 14.7177 26.7758V28.7876C14.7221 32.1916 16.0136 35.4791 18.3536 38.0431C20.6935 40.607 23.924 42.2743 27.4485 42.737C26.0099 44.4985 25.229 46.6701 25.2303 48.9057V50.9175H18.9228C17.2499 50.9175 15.6455 50.2816 14.4626 49.1497C13.2797 48.0179 12.6152 46.4827 12.6152 44.8821C12.6152 43.5611 12.3433 42.2531 11.8149 41.0326C11.2866 39.8122 10.5123 38.7033 9.53609 37.7693C8.5599 36.8352 7.401 36.0943 6.12554 35.5887C4.85009 35.0832 3.48307 34.823 2.10253 34.823C1.5449 34.823 1.01012 35.035 0.615816 35.4123C0.221516 35.7896 0 36.3013 0 36.8348C0 37.3684 0.221516 37.8801 0.615816 38.2574C1.01012 38.6347 1.5449 38.8466 2.10253 38.8466C3.7754 38.8466 5.37976 39.4825 6.56266 40.6144C7.74557 41.7462 8.41011 43.2814 8.41011 44.8821C8.41011 47.5499 9.51769 50.1084 11.4892 51.9949C13.4607 53.8813 16.1346 54.9411 18.9228 54.9411H25.2303V58.9647C25.2303 59.4982 25.4519 60.0099 25.8462 60.3872C26.2405 60.7645 26.7752 60.9765 27.3329 60.9765C27.8905 60.9765 28.4253 60.7645 28.8196 60.3872C29.2139 60.0099 29.4354 59.4982 29.4354 58.9647V48.9057C29.4354 47.305 30.0999 45.7698 31.2828 44.638C32.4658 43.5061 34.0701 42.8703 35.743 42.8703C37.4159 42.8703 39.0202 43.5061 40.2031 44.638C41.386 45.7698 42.0506 47.305 42.0506 48.9057V58.9647C42.0506 59.4982 42.2721 60.0099 42.6664 60.3872C43.0607 60.7645 43.5955 60.9765 44.1531 60.9765C44.7107 60.9765 45.2455 60.7645 45.6398 60.3872C46.0341 60.0099 46.2556 59.4982 46.2556 58.9647V48.9057C46.257 46.6701 45.4761 44.4985 44.0375 42.737C47.5619 42.2743 50.7924 40.607 53.1324 38.0431C55.4724 35.4791 56.7638 32.1916 56.7683 28.7876V26.7758C56.7421 24.2756 56.0462 21.8236 54.7472 19.6541ZM52.5632 28.7876C52.5632 31.4555 51.4556 34.014 49.4841 35.9004C47.5126 37.7869 44.8387 38.8466 42.0506 38.8466H29.4354C26.6473 38.8466 23.9733 37.7869 22.0018 35.9004C20.0303 34.014 18.9228 31.4555 18.9228 28.7876V26.7758C18.9485 24.7641 19.578 22.8018 20.7362 21.1227C20.9521 20.8504 21.0919 20.5299 21.1425 20.1916C21.1931 19.8532 21.1528 19.5081 21.0253 19.1888C20.4776 17.8374 20.2141 16.3958 20.2497 14.9468C20.2853 13.4977 20.6194 12.0696 21.2329 10.7443C22.9536 10.9214 24.6106 11.4668 26.081 12.3401C27.5514 13.2133 28.7976 14.3921 29.7271 15.7889C29.9165 16.0723 30.1772 16.3057 30.4853 16.4679C30.7934 16.63 31.139 16.7156 31.4906 16.7168H39.9927C40.3456 16.7168 40.6929 16.6318 41.0025 16.4697C41.312 16.3075 41.574 16.0734 41.7641 15.7889C42.6935 14.3919 43.9396 13.2131 45.4101 12.3398C46.8805 11.4666 48.5376 10.9212 50.2583 10.7443C50.8709 12.0699 51.2042 13.4982 51.2389 14.9473C51.2736 16.3963 51.0092 17.8377 50.4607 19.1888C50.3336 19.5051 50.2911 19.8467 50.337 20.1826C50.3829 20.5186 50.5157 20.8382 50.7235 21.1126C51.8932 22.7918 52.5319 24.7581 52.5632 26.7758V28.7876Z" fill="#343330"/>
</svg>
