<svg width="43" height="37" viewBox="0 0 43 37" fill="none" xmlns="http://www.w3.org/2000/svg">
<path d="M38.7876 30.6407C36.2294 26.8351 32.2872 24.1064 27.6865 22.8128C29.9622 21.6471 31.7303 19.8709 32.7192 17.7568C33.7082 15.6428 33.8633 13.3079 33.1607 11.1107C32.4582 8.91343 30.9369 6.97538 28.8304 5.59414C26.7239 4.2129 24.1487 3.46484 21.5003 3.46484C18.8518 3.46484 16.2766 4.2129 14.1701 5.59414C12.0636 6.97538 10.5423 8.91343 9.83977 11.1107C9.13723 13.3079 9.29233 15.6428 10.2813 17.7568C11.2702 19.8709 13.0383 21.6471 15.314 22.8128C10.7133 24.1049 6.77108 26.8337 4.21291 30.6407C4.1191 30.7723 4.05688 30.9187 4.02991 31.0714C4.00294 31.224 4.01178 31.3798 4.0559 31.5294C4.10002 31.6791 4.17854 31.8197 4.28681 31.9428C4.39507 32.0659 4.53091 32.1691 4.68629 32.2464C4.84167 32.3236 5.01346 32.3733 5.19151 32.3924C5.36956 32.4116 5.55028 32.3999 5.72299 32.358C5.8957 32.3161 6.05691 32.2449 6.19711 32.1485C6.3373 32.0521 6.45365 31.9326 6.53928 31.7969C9.70381 27.091 15.2972 24.2813 21.5003 24.2813C27.7033 24.2813 33.2967 27.091 36.4612 31.7969C36.5469 31.9326 36.6632 32.0521 36.8034 32.1485C36.9436 32.2449 37.1048 32.3161 37.2775 32.358C37.4502 32.3999 37.6309 32.4116 37.809 32.3924C37.987 32.3733 38.1588 32.3236 38.3142 32.2464C38.4696 32.1691 38.6054 32.0659 38.7137 31.9428C38.822 31.8197 38.9005 31.6791 38.9446 31.5294C38.9887 31.3798 38.9976 31.224 38.9706 31.0714C38.9436 30.9187 38.8814 30.7723 38.7876 30.6407ZM12.094 13.875C12.094 12.2742 12.6457 10.7094 13.6792 9.37838C14.7128 8.04737 16.1819 7.00997 17.9006 6.39738C19.6194 5.78478 21.5107 5.6245 23.3353 5.93679C25.16 6.24909 26.836 7.01995 28.1515 8.15188C29.467 9.28381 30.3628 10.726 30.7258 12.296C31.0887 13.866 30.9024 15.4934 30.1905 16.9724C29.4786 18.4513 28.2729 19.7154 26.7261 20.6047C25.1792 21.4941 23.3606 21.9688 21.5003 21.9688C19.0064 21.9665 16.6154 21.113 14.852 19.5956C13.0885 18.0783 12.0967 16.0209 12.094 13.875Z" fill="black"/>
</svg>
