<svg width="97" height="65" viewBox="0 0 97 65" fill="none" xmlns="http://www.w3.org/2000/svg">
<path d="M73.625 31.9999C73.6256 38.3096 71.0249 44.3657 66.3858 48.8574C61.7467 53.3491 55.4425 55.9151 48.8376 55.9999H48.5C42.0833 56.0152 35.9068 53.6695 31.2527 49.4499C31.0529 49.2693 30.8922 49.0529 30.7799 48.813C30.6676 48.5731 30.6059 48.3145 30.5982 48.0518C30.5905 47.7891 30.6371 47.5276 30.7353 47.2821C30.8334 47.0366 30.9813 46.812 31.1703 46.6211C31.3593 46.4302 31.5859 46.2767 31.837 46.1695C32.0881 46.0622 32.3589 46.0032 32.6339 45.9959C32.9089 45.9886 33.1827 46.0331 33.4397 46.1268C33.6966 46.2206 33.9318 46.3618 34.1316 46.5424C37.1252 49.2391 40.8842 51.0335 44.9391 51.7013C48.9941 52.3692 53.1651 51.881 56.9313 50.2976C60.6974 48.7142 63.8916 46.1059 66.1149 42.7986C68.3382 39.4912 69.492 35.6313 69.4321 31.7012C69.3722 27.7711 68.1014 23.945 65.7783 20.7008C63.4552 17.4566 60.1829 14.9382 56.3702 13.4601C52.5574 11.9821 48.3732 11.61 44.3404 12.3902C40.3075 13.1705 36.6047 15.0686 33.6946 17.8474C33.6732 17.8695 33.6505 17.8903 33.6265 17.9099L26.67 23.9999H33.8438C34.399 23.9999 34.9316 24.2106 35.3243 24.5857C35.7169 24.9607 35.9375 25.4694 35.9375 25.9999C35.9375 26.5303 35.7169 27.039 35.3243 27.4141C34.9316 27.7892 34.399 27.9999 33.8438 27.9999H21.2812C20.726 27.9999 20.1934 27.7892 19.8007 27.4141C19.4081 27.039 19.1875 26.5303 19.1875 25.9999V13.9999C19.1875 13.4694 19.4081 12.9607 19.8007 12.5857C20.1934 12.2106 20.726 11.9999 21.2812 11.9999C21.8365 11.9999 22.3691 12.2106 22.7618 12.5857C23.1544 12.9607 23.375 13.4694 23.375 13.9999V21.4499L30.7686 14.9999C34.286 11.653 38.7627 9.37654 43.6334 8.45794C48.5042 7.53935 53.5506 8.01978 58.1358 9.83859C62.7209 11.6574 66.6392 14.733 69.3959 18.6772C72.1526 22.6214 73.6243 27.2574 73.625 31.9999Z" fill="white"/>
<rect x="1.5" y="1.5" width="94" height="62" rx="18.5" stroke="white" stroke-width="3"/>
</svg>
