<svg width="87" height="81" viewBox="0 0 87 81" fill="none" xmlns="http://www.w3.org/2000/svg">
<path d="M61.3203 25.0965C52.8652 24.2634 44.3594 23.8342 35.8789 23.8342C30.8516 23.8342 25.8242 24.0867 20.7969 24.5916L15.6172 25.0965" stroke="white" stroke-width="2.5" stroke-linecap="round" stroke-linejoin="round"/>
<path d="M29.582 22.5467L30.1406 19.2396C30.5469 16.8414 30.8516 15.049 35.1426 15.049H41.7949C46.0859 15.049 46.416 16.9424 46.7969 19.2649L47.3555 22.5467" stroke="white" stroke-width="2.5" stroke-linecap="round" stroke-linejoin="round"/>
<path d="M55.8613 33.0739L54.2109 58.4955C53.9316 62.459 53.7031 65.5389 46.6191 65.5389H30.3184C23.2344 65.5389 23.0059 62.459 22.7266 58.4955L21.0762 33.0739" stroke="white" stroke-width="2.5" stroke-linecap="round" stroke-linejoin="round"/>
<path d="M34.2285 51.6541H42.6836" stroke="white" stroke-width="2.5" stroke-linecap="round" stroke-linejoin="round"/>
<path d="M32.1211 41.5562H44.8164" stroke="white" stroke-width="2.5" stroke-linecap="round" stroke-linejoin="round"/>
</svg>
