<svg width="60" height="60" viewBox="0 0 60 60" fill="none" xmlns="http://www.w3.org/2000/svg">
<path d="M30 30C36.9036 30 42.5 24.4036 42.5 17.5C42.5 10.5964 36.9036 5 30 5C23.0964 5 17.5 10.5964 17.5 17.5C17.5 24.4036 23.0964 30 30 30Z" stroke="white" stroke-width="2" stroke-linecap="round" stroke-linejoin="round"/>
<path d="M8.52539 55C8.52539 45.325 18.1504 37.5 30.0004 37.5C32.4004 37.5 34.7254 37.825 36.9004 38.425" stroke="white" stroke-width="2" stroke-linecap="round" stroke-linejoin="round"/>
<path d="M55 45C55 45.8 54.9 46.575 54.7 47.325C54.475 48.325 54.075 49.3 53.55 50.15C51.825 53.05 48.65 55 45 55C42.425 55 40.1 54.0249 38.35 52.4249C37.6 51.7749 36.95 51 36.45 50.15C35.525 48.65 35 46.875 35 45C35 42.3 36.075 39.8251 37.825 38.0251C39.65 36.1501 42.2 35 45 35C47.95 35 50.625 36.275 52.425 38.325C54.025 40.1 55 42.45 55 45Z" stroke="white" stroke-width="2" stroke-miterlimit="10" stroke-linecap="round" stroke-linejoin="round"/>
<path d="M47.5748 42.35L42.2998 47.625" stroke="white" stroke-width="2" stroke-miterlimit="10" stroke-linecap="round" stroke-linejoin="round"/>
<path d="M42.3496 42.4001L47.6496 47.675" stroke="white" stroke-width="2" stroke-miterlimit="10" stroke-linecap="round" stroke-linejoin="round"/>
</svg>
