<svg width="225" height="211" viewBox="0 0 225 211" fill="none" xmlns="http://www.w3.org/2000/svg">
<g filter="url(#filter0_d_417_53)">
<ellipse cx="112.5" cy="101.5" rx="108.5" ry="101.5" fill="#00002D"/>
<path d="M220.5 101.5C220.5 157.25 172.179 202.5 112.5 202.5C52.8213 202.5 4.5 157.25 4.5 101.5C4.5 45.7501 52.8213 0.5 112.5 0.5C172.179 0.5 220.5 45.7501 220.5 101.5Z" stroke="white"/>
</g>
<path d="M174.913 141.656C165.751 128.286 151.632 118.698 135.155 114.153C143.306 110.058 149.638 103.817 153.179 96.3889C156.721 88.9613 157.277 80.7575 154.761 73.0375C152.245 65.3175 146.796 58.5082 139.252 53.6552C131.708 48.8021 122.485 46.1738 113 46.1738C103.515 46.1738 94.292 48.8021 86.7478 53.6552C79.2036 58.5082 73.7551 65.3175 71.239 73.0375C68.7229 80.7575 69.2784 88.9613 72.8202 96.3889C76.3619 103.817 82.6941 110.058 90.8443 114.153C74.3675 118.693 60.2488 128.281 51.087 141.656C50.751 142.119 50.5282 142.633 50.4316 143.17C50.335 143.706 50.3667 144.253 50.5247 144.779C50.6827 145.305 50.9639 145.799 51.3517 146.231C51.7394 146.664 52.2259 147.027 52.7824 147.298C53.3389 147.569 53.9541 147.744 54.5918 147.811C55.2294 147.879 55.8766 147.838 56.4952 147.69C57.1137 147.543 57.6911 147.293 58.1932 146.954C58.6953 146.616 59.112 146.196 59.4187 145.719C70.7521 129.185 90.7841 119.313 113 119.313C135.216 119.313 155.248 129.185 166.581 145.719C166.888 146.196 167.304 146.616 167.806 146.954C168.309 147.293 168.886 147.543 169.504 147.69C170.123 147.838 170.77 147.879 171.408 147.811C172.046 147.744 172.661 147.569 173.217 147.298C173.774 147.027 174.26 146.664 174.648 146.231C175.036 145.799 175.317 145.305 175.475 144.779C175.633 144.253 175.665 143.706 175.568 143.17C175.471 142.633 175.249 142.119 174.913 141.656ZM79.3123 82.7501C79.3123 77.1257 81.2881 71.6276 84.9897 66.9511C88.6913 62.2746 93.9526 58.6297 100.108 56.4773C106.264 54.325 113.037 53.7618 119.572 54.8591C126.107 55.9563 132.109 58.6647 136.82 62.6418C141.532 66.6188 144.74 71.6859 146.04 77.2023C147.34 82.7186 146.673 88.4364 144.123 93.6327C141.573 98.829 137.255 103.27 131.716 106.395C126.176 109.52 119.663 111.188 113 111.188C104.068 111.18 95.5053 108.181 89.1897 102.85C82.8742 97.5183 79.3219 90.2898 79.3123 82.7501Z" fill="white"/>
<g filter="url(#filter1_d_417_53)">
<ellipse cx="112.5" cy="101.5" rx="108.5" ry="101.5" fill="#00002D"/>
<path d="M220.5 101.5C220.5 157.25 172.179 202.5 112.5 202.5C52.8213 202.5 4.5 157.25 4.5 101.5C4.5 45.7501 52.8213 0.5 112.5 0.5C172.179 0.5 220.5 45.7501 220.5 101.5Z" stroke="white"/>
</g>
<path d="M174.913 141.656C165.751 128.286 151.632 118.698 135.155 114.153C143.306 110.058 149.638 103.817 153.179 96.3889C156.721 88.9613 157.277 80.7575 154.761 73.0375C152.245 65.3175 146.796 58.5082 139.252 53.6552C131.708 48.8021 122.485 46.1738 113 46.1738C103.515 46.1738 94.292 48.8021 86.7478 53.6552C79.2036 58.5082 73.7551 65.3175 71.239 73.0375C68.7229 80.7575 69.2784 88.9613 72.8202 96.3889C76.3619 103.817 82.6941 110.058 90.8443 114.153C74.3675 118.693 60.2488 128.281 51.087 141.656C50.751 142.119 50.5282 142.633 50.4316 143.17C50.335 143.706 50.3667 144.253 50.5247 144.779C50.6827 145.305 50.9639 145.799 51.3517 146.231C51.7394 146.664 52.2259 147.027 52.7824 147.298C53.3389 147.569 53.9541 147.744 54.5918 147.811C55.2294 147.879 55.8766 147.838 56.4952 147.69C57.1137 147.543 57.6911 147.293 58.1932 146.954C58.6953 146.616 59.112 146.196 59.4187 145.719C70.7521 129.185 90.7841 119.313 113 119.313C135.216 119.313 155.248 129.185 166.581 145.719C166.888 146.196 167.304 146.616 167.806 146.954C168.309 147.293 168.886 147.543 169.504 147.69C170.123 147.838 170.77 147.879 171.408 147.811C172.046 147.744 172.661 147.569 173.217 147.298C173.774 147.027 174.26 146.664 174.648 146.231C175.036 145.799 175.317 145.305 175.475 144.779C175.633 144.253 175.665 143.706 175.568 143.17C175.471 142.633 175.249 142.119 174.913 141.656ZM79.3123 82.7501C79.3123 77.1257 81.2881 71.6276 84.9897 66.9511C88.6913 62.2746 93.9526 58.6297 100.108 56.4773C106.264 54.325 113.037 53.7618 119.572 54.8591C126.107 55.9563 132.109 58.6647 136.82 62.6418C141.532 66.6188 144.74 71.6859 146.04 77.2023C147.34 82.7186 146.673 88.4364 144.123 93.6327C141.573 98.829 137.255 103.27 131.716 106.395C126.176 109.52 119.663 111.188 113 111.188C104.068 111.18 95.5053 108.181 89.1897 102.85C82.8742 97.5183 79.3219 90.2898 79.3123 82.7501Z" fill="white"/>
<defs>
<filter id="filter0_d_417_53" x="0" y="0" width="225" height="211" filterUnits="userSpaceOnUse" color-interpolation-filters="sRGB">
<feFlood flood-opacity="0" result="BackgroundImageFix"/>
<feColorMatrix in="SourceAlpha" type="matrix" values="0 0 0 0 0 0 0 0 0 0 0 0 0 0 0 0 0 0 127 0" result="hardAlpha"/>
<feOffset dy="4"/>
<feGaussianBlur stdDeviation="2"/>
<feComposite in2="hardAlpha" operator="out"/>
<feColorMatrix type="matrix" values="0 0 0 0 0 0 0 0 0 0 0 0 0 0 0 0 0 0 0.25 0"/>
<feBlend mode="normal" in2="BackgroundImageFix" result="effect1_dropShadow_417_53"/>
<feBlend mode="normal" in="SourceGraphic" in2="effect1_dropShadow_417_53" result="shape"/>
</filter>
<filter id="filter1_d_417_53" x="0" y="0" width="225" height="211" filterUnits="userSpaceOnUse" color-interpolation-filters="sRGB">
<feFlood flood-opacity="0" result="BackgroundImageFix"/>
<feColorMatrix in="SourceAlpha" type="matrix" values="0 0 0 0 0 0 0 0 0 0 0 0 0 0 0 0 0 0 127 0" result="hardAlpha"/>
<feOffset dy="4"/>
<feGaussianBlur stdDeviation="2"/>
<feComposite in2="hardAlpha" operator="out"/>
<feColorMatrix type="matrix" values="0 0 0 0 0 0 0 0 0 0 0 0 0 0 0 0 0 0 0.25 0"/>
<feBlend mode="normal" in2="BackgroundImageFix" result="effect1_dropShadow_417_53"/>
<feBlend mode="normal" in="SourceGraphic" in2="effect1_dropShadow_417_53" result="shape"/>
</filter>
</defs>
</svg>
