<svg width="60" height="45" viewBox="0 0 60 45" fill="none" xmlns="http://www.w3.org/2000/svg">
<path d="M40.0002 21.1364L27.385 13.0892C27.0683 12.887 26.7002 12.7709 26.3199 12.7533C25.9396 12.7356 25.5614 12.8171 25.2258 12.9891C24.8901 13.161 24.6095 13.417 24.414 13.7296C24.2185 14.0422 24.1154 14.3997 24.1156 14.764V30.8584C24.1154 31.2228 24.2185 31.5803 24.414 31.8929C24.6095 32.2055 24.8901 32.4614 25.2258 32.6334C25.5614 32.8053 25.9396 32.8868 26.3199 32.8692C26.7002 32.8516 27.0683 32.7355 27.385 32.5333L40.0002 24.4861C40.2886 24.3024 40.5251 24.0534 40.6887 23.7612C40.8523 23.469 40.9379 23.1427 40.9379 22.8112C40.9379 22.4798 40.8523 22.1534 40.6887 21.8612C40.5251 21.569 40.2886 21.3201 40.0002 21.1364ZM28.3207 27.0989V18.5362L35.0435 22.8112L28.3207 27.0989ZM58.3684 8.10496C58.1208 7.17788 57.6463 6.32044 56.9842 5.60336C56.3221 4.88628 55.4912 4.33012 54.5602 3.98076C45.5509 0.651229 31.2116 0.681406 30.4232 0.681406C29.6347 0.681406 15.2955 0.651229 6.28617 3.98076C5.35517 4.33012 4.52434 4.88628 3.8622 5.60336C3.20006 6.32044 2.7256 7.17788 2.47796 8.10496C1.79727 10.6147 0.987793 15.2016 0.987793 22.8112C0.987793 30.4209 1.79727 35.0078 2.47796 37.5175C2.72523 38.445 3.19952 39.303 3.86168 40.0205C4.52384 40.7381 5.35487 41.2946 6.28617 41.6442C14.917 44.8304 28.4258 44.9411 30.2497 44.9411H30.5967C32.4206 44.9411 45.9372 44.8304 54.5602 41.6442C55.4915 41.2946 56.3226 40.7381 56.9847 40.0205C57.6469 39.303 58.1212 38.445 58.3684 37.5175C59.0491 35.0028 59.8586 30.4209 59.8586 22.8112C59.8586 15.2016 59.0491 10.6147 58.3684 8.10496ZM54.2974 36.5217C54.2173 36.8302 54.0619 37.1162 53.844 37.3562C53.6261 37.5961 53.3519 37.7833 53.0438 37.9023C44.7257 40.9753 30.5783 40.92 30.4416 40.92H30.4232C30.2813 40.92 16.1444 40.9703 7.82101 37.9023C7.51291 37.7833 7.23867 37.5961 7.02076 37.3562C6.80285 37.1162 6.64747 36.8302 6.56738 36.5217C5.92874 34.2257 5.19285 29.9959 5.19285 22.8112C5.19285 15.6266 5.92874 11.3968 6.54898 9.11337C6.62759 8.803 6.78229 8.515 7.00028 8.27318C7.21827 8.03136 7.4933 7.84267 7.80261 7.72271C15.8238 4.75782 29.2642 4.70501 30.3654 4.70501H30.4363C30.5783 4.70501 44.7283 4.65975 53.0385 7.72271C53.3466 7.84169 53.6209 8.02884 53.8388 8.26882C54.0567 8.5088 54.2121 8.79478 54.2922 9.10331C54.9177 11.3968 55.6535 15.6266 55.6535 22.8112C55.6535 29.9959 54.9177 34.2257 54.2974 36.5091V36.5217Z" fill="#343330"/>
</svg>
