<svg width="58" height="49" viewBox="0 0 58 49" fill="none" xmlns="http://www.w3.org/2000/svg">
<path d="M56.8837 7.95907C56.7247 7.59143 56.4553 7.27718 56.1095 7.05606C55.7638 6.83493 55.3574 6.71686 54.9415 6.71678H46.944C45.8259 4.89655 44.2345 3.38412 42.3247 2.32654C40.4149 1.26895 38.2515 0.702198 36.045 0.681374C34.4012 0.660742 32.7696 0.954913 31.2463 1.54658C29.723 2.13824 28.3387 3.01545 27.175 4.12659C25.9773 5.25124 25.0266 6.59368 24.379 8.07496C23.7313 9.55625 23.3997 11.1465 23.4036 12.7522V14.2837C12.8226 11.613 4.16808 3.37719 4.0761 3.28917C3.79402 3.01688 3.4365 2.82738 3.04564 2.74299C2.65478 2.6586 2.24686 2.68283 1.86991 2.81283C1.49296 2.94284 1.16268 3.1732 0.917974 3.47679C0.673265 3.78038 0.524313 4.14456 0.488659 4.52643C-0.644079 16.5444 3.00381 24.5866 6.27061 29.2163C7.86348 31.5049 9.80124 33.5557 12.021 35.302C8.01834 39.7103 1.71601 42.0264 1.64768 42.0516C1.35099 42.1579 1.08326 42.327 0.864475 42.5463C0.645691 42.7655 0.481516 43.0292 0.384217 43.3177C0.286919 43.6062 0.259013 43.912 0.302584 44.2123C0.346154 44.5125 0.460075 44.7995 0.635835 45.0517C0.832947 45.3333 1.6214 46.3216 3.54784 47.2445C5.92895 48.3862 9.07486 48.9646 12.8909 48.9646C31.4642 48.9646 46.9835 35.2793 48.5682 17.671L56.4291 10.1519C56.723 9.87043 56.9231 9.51183 57.004 9.12149C57.085 8.73116 57.0431 8.32663 56.8837 7.95907ZM45.057 15.355C44.6965 15.7007 44.4798 16.1601 44.4473 16.6475C43.3776 32.5131 29.5219 44.941 12.8909 44.941C10.1156 44.941 8.16026 44.589 6.78836 44.1665C9.81337 42.5948 14.0316 39.8914 16.7438 35.9986C16.903 35.7697 17.0115 35.512 17.0625 35.2414C17.1136 34.9708 17.1061 34.6931 17.0406 34.4254C16.9751 34.1577 16.8529 33.9057 16.6816 33.6849C16.5103 33.4641 16.2936 33.2793 16.0447 33.1418C15.9212 33.0739 4.50449 26.5179 4.48083 9.00018C8.68589 12.2694 16.3733 17.3416 25.1566 18.7549C25.4576 18.8035 25.7661 18.7887 26.0605 18.7117C26.355 18.6347 26.6284 18.4972 26.8618 18.3089C27.0951 18.1205 27.2828 17.8858 27.4118 17.6211C27.5408 17.3563 27.6079 17.0679 27.6086 16.7758V12.7522C27.6063 11.679 27.8283 10.6162 28.2616 9.62638C28.6949 8.63652 29.3307 7.73959 30.1317 6.98837C30.8995 6.2523 31.8138 5.67098 32.8204 5.27879C33.8271 4.88659 34.9057 4.69148 35.9925 4.70498C39.3197 4.74521 42.4288 6.6866 43.7298 9.53582C43.8938 9.89404 44.1633 10.1988 44.5055 10.4127C44.8476 10.6266 45.2475 10.7405 45.6562 10.7404H49.8613L45.057 15.355Z" fill="#343330"/>
</svg>
